# xmcd
#
# Track frame offsets:
#	150
#	13714
#	27581
#	43313
#	60302
#	79541
#	95991
#	112212
#	124340
#	137820
#	151868
#
# Disc length: 2281 seconds
#
# Revision: 1
# Processed by: cddbd v1.5.1PL0 Copyright (c) Steve Scherf et al.
# Submitted via: audiograbber 1.83.01
#
DISCID=9808e70b
DTITLE=Kåre Virud Band - Ild og Vann
DYEAR=2005
DGENRE=Blues
TTITLE0=Båsen og jeg
TTITLE1=Daniel
TTITLE2=Faren min og jeg
TTITLE3=Langt inni skauen
TTITLE4=Langt borte
TTITLE5=Julenissen er i by'n
TTITLE6=Hul hånd
TTITLE7=Ballade
TTITLE8=Ned til Mississippi
TTITLE9=Tinga
TTITLE10=Ild og vann
EXTD=
EXTT0=
EXTT1=
EXTT2=
EXTT3=
EXTT4=
EXTT5=
EXTT6=
EXTT7=
EXTT8=
EXTT9=
EXTT10=
PLAYORDER=
